<mxfile host="app.diagrams.net" modified="2023-03-11T02:20:30.264Z" agent="5.0 (Windows NT 10.0; Win64; x64) AppleWebKit/537.36 (KHTML, like Gecko) Chrome/107.0.0.0 Safari/537.36" etag="fxIIdB_gbt8WS9S34lcE" version="21.0.2" type="github">
  <diagram name="第 1 页" id="0Z83amZDiFIKCZFvAMt-">
    <mxGraphModel dx="1397" dy="754" grid="1" gridSize="10" guides="1" tooltips="1" connect="1" arrows="1" fold="1" page="1" pageScale="1" pageWidth="827" pageHeight="1169" math="0" shadow="0">
      <root>
        <mxCell id="0" />
        <mxCell id="1" parent="0" />
        <mxCell id="5L-th6wMLYT3b9Qm78VZ-5" value="Hero" style="swimlane;fontStyle=0;childLayout=stackLayout;horizontal=1;startSize=26;fillColor=none;horizontalStack=0;resizeParent=1;resizeParentMax=0;resizeLast=0;collapsible=1;marginBottom=0;whiteSpace=wrap;html=1;" vertex="1" parent="1">
          <mxGeometry x="80" y="90" width="140" height="104" as="geometry" />
        </mxCell>
        <mxCell id="5L-th6wMLYT3b9Qm78VZ-6" value="+ name: String" style="text;strokeColor=none;fillColor=none;align=left;verticalAlign=top;spacingLeft=4;spacingRight=4;overflow=hidden;rotatable=0;points=[[0,0.5],[1,0.5]];portConstraint=eastwest;whiteSpace=wrap;html=1;" vertex="1" parent="5L-th6wMLYT3b9Qm78VZ-5">
          <mxGeometry y="26" width="140" height="26" as="geometry" />
        </mxCell>
        <mxCell id="5L-th6wMLYT3b9Qm78VZ-7" value="+ HP: Number" style="text;strokeColor=none;fillColor=none;align=left;verticalAlign=top;spacingLeft=4;spacingRight=4;overflow=hidden;rotatable=0;points=[[0,0.5],[1,0.5]];portConstraint=eastwest;whiteSpace=wrap;html=1;" vertex="1" parent="5L-th6wMLYT3b9Qm78VZ-5">
          <mxGeometry y="52" width="140" height="26" as="geometry" />
        </mxCell>
        <mxCell id="5L-th6wMLYT3b9Qm78VZ-8" value="+ MP: Number" style="text;strokeColor=none;fillColor=none;align=left;verticalAlign=top;spacingLeft=4;spacingRight=4;overflow=hidden;rotatable=0;points=[[0,0.5],[1,0.5]];portConstraint=eastwest;whiteSpace=wrap;html=1;" vertex="1" parent="5L-th6wMLYT3b9Qm78VZ-5">
          <mxGeometry y="78" width="140" height="26" as="geometry" />
        </mxCell>
        <mxCell id="5L-th6wMLYT3b9Qm78VZ-9" value="&lt;font color=&quot;#ff5e00&quot;&gt;Extends/继承&lt;/font&gt;" style="endArrow=block;endSize=16;endFill=0;html=1;rounded=0;exitX=0.5;exitY=0;exitDx=0;exitDy=0;" edge="1" parent="1" source="5L-th6wMLYT3b9Qm78VZ-10" target="5L-th6wMLYT3b9Qm78VZ-5">
          <mxGeometry width="160" relative="1" as="geometry">
            <mxPoint x="170" y="290" as="sourcePoint" />
            <mxPoint x="320" y="300" as="targetPoint" />
          </mxGeometry>
        </mxCell>
        <mxCell id="5L-th6wMLYT3b9Qm78VZ-10" value="AD Hero" style="swimlane;fontStyle=0;childLayout=stackLayout;horizontal=1;startSize=26;fillColor=none;horizontalStack=0;resizeParent=1;resizeParentMax=0;resizeLast=0;collapsible=1;marginBottom=0;whiteSpace=wrap;html=1;" vertex="1" parent="1">
          <mxGeometry x="80" y="300" width="140" height="104" as="geometry" />
        </mxCell>
        <mxCell id="5L-th6wMLYT3b9Qm78VZ-11" value="+ name: String" style="text;strokeColor=none;fillColor=none;align=left;verticalAlign=top;spacingLeft=4;spacingRight=4;overflow=hidden;rotatable=0;points=[[0,0.5],[1,0.5]];portConstraint=eastwest;whiteSpace=wrap;html=1;" vertex="1" parent="5L-th6wMLYT3b9Qm78VZ-10">
          <mxGeometry y="26" width="140" height="26" as="geometry" />
        </mxCell>
        <mxCell id="5L-th6wMLYT3b9Qm78VZ-12" value="+ HP: Number" style="text;strokeColor=none;fillColor=none;align=left;verticalAlign=top;spacingLeft=4;spacingRight=4;overflow=hidden;rotatable=0;points=[[0,0.5],[1,0.5]];portConstraint=eastwest;whiteSpace=wrap;html=1;" vertex="1" parent="5L-th6wMLYT3b9Qm78VZ-10">
          <mxGeometry y="52" width="140" height="26" as="geometry" />
        </mxCell>
        <mxCell id="5L-th6wMLYT3b9Qm78VZ-13" value="+ MP: Number" style="text;strokeColor=none;fillColor=none;align=left;verticalAlign=top;spacingLeft=4;spacingRight=4;overflow=hidden;rotatable=0;points=[[0,0.5],[1,0.5]];portConstraint=eastwest;whiteSpace=wrap;html=1;" vertex="1" parent="5L-th6wMLYT3b9Qm78VZ-10">
          <mxGeometry y="78" width="140" height="26" as="geometry" />
        </mxCell>
        <mxCell id="5L-th6wMLYT3b9Qm78VZ-14" value="«interface»&lt;br&gt;&lt;b&gt;AD&lt;/b&gt;" style="html=1;whiteSpace=wrap;" vertex="1" parent="1">
          <mxGeometry x="359" y="327" width="110" height="50" as="geometry" />
        </mxCell>
        <mxCell id="5L-th6wMLYT3b9Qm78VZ-15" value="«interface»&lt;br&gt;&lt;b&gt;AP&lt;/b&gt;" style="html=1;whiteSpace=wrap;" vertex="1" parent="1">
          <mxGeometry x="359" y="430" width="110" height="50" as="geometry" />
        </mxCell>
        <mxCell id="5L-th6wMLYT3b9Qm78VZ-16" value="" style="endArrow=block;dashed=1;endFill=0;endSize=12;html=1;rounded=0;edgeStyle=orthogonalEdgeStyle;" edge="1" parent="1" source="5L-th6wMLYT3b9Qm78VZ-10" target="5L-th6wMLYT3b9Qm78VZ-14">
          <mxGeometry width="160" relative="1" as="geometry">
            <mxPoint x="230" y="342" as="sourcePoint" />
            <mxPoint x="360" y="320" as="targetPoint" />
          </mxGeometry>
        </mxCell>
        <mxCell id="5L-th6wMLYT3b9Qm78VZ-17" value="&lt;font color=&quot;#ff5e00&quot;&gt;implements/实现&lt;/font&gt;" style="edgeLabel;html=1;align=center;verticalAlign=middle;resizable=0;points=[];" vertex="1" connectable="0" parent="5L-th6wMLYT3b9Qm78VZ-16">
          <mxGeometry x="-0.1842" relative="1" as="geometry">
            <mxPoint x="13" as="offset" />
          </mxGeometry>
        </mxCell>
        <mxCell id="5L-th6wMLYT3b9Qm78VZ-18" value="ADAP Hero" style="swimlane;fontStyle=0;childLayout=stackLayout;horizontal=1;startSize=26;fillColor=none;horizontalStack=0;resizeParent=1;resizeParentMax=0;resizeLast=0;collapsible=1;marginBottom=0;whiteSpace=wrap;html=1;" vertex="1" parent="1">
          <mxGeometry x="650" y="300" width="140" height="104" as="geometry" />
        </mxCell>
        <mxCell id="5L-th6wMLYT3b9Qm78VZ-19" value="+ name: String" style="text;strokeColor=none;fillColor=none;align=left;verticalAlign=top;spacingLeft=4;spacingRight=4;overflow=hidden;rotatable=0;points=[[0,0.5],[1,0.5]];portConstraint=eastwest;whiteSpace=wrap;html=1;" vertex="1" parent="5L-th6wMLYT3b9Qm78VZ-18">
          <mxGeometry y="26" width="140" height="26" as="geometry" />
        </mxCell>
        <mxCell id="5L-th6wMLYT3b9Qm78VZ-20" value="+ HP: Number" style="text;strokeColor=none;fillColor=none;align=left;verticalAlign=top;spacingLeft=4;spacingRight=4;overflow=hidden;rotatable=0;points=[[0,0.5],[1,0.5]];portConstraint=eastwest;whiteSpace=wrap;html=1;" vertex="1" parent="5L-th6wMLYT3b9Qm78VZ-18">
          <mxGeometry y="52" width="140" height="26" as="geometry" />
        </mxCell>
        <mxCell id="5L-th6wMLYT3b9Qm78VZ-21" value="+ MP: Number" style="text;strokeColor=none;fillColor=none;align=left;verticalAlign=top;spacingLeft=4;spacingRight=4;overflow=hidden;rotatable=0;points=[[0,0.5],[1,0.5]];portConstraint=eastwest;whiteSpace=wrap;html=1;" vertex="1" parent="5L-th6wMLYT3b9Qm78VZ-18">
          <mxGeometry y="78" width="140" height="26" as="geometry" />
        </mxCell>
        <mxCell id="5L-th6wMLYT3b9Qm78VZ-22" value="Extends/继承" style="endArrow=block;endSize=16;endFill=0;html=1;rounded=0;edgeStyle=orthogonalEdgeStyle;" edge="1" parent="1" source="5L-th6wMLYT3b9Qm78VZ-18" target="5L-th6wMLYT3b9Qm78VZ-5">
          <mxGeometry width="160" relative="1" as="geometry">
            <mxPoint x="640" y="300" as="sourcePoint" />
            <mxPoint x="580" y="150" as="targetPoint" />
            <Array as="points">
              <mxPoint x="720" y="142" />
            </Array>
          </mxGeometry>
        </mxCell>
        <mxCell id="5L-th6wMLYT3b9Qm78VZ-23" value="" style="endArrow=block;dashed=1;endFill=0;endSize=12;html=1;rounded=0;edgeStyle=orthogonalEdgeStyle;" edge="1" parent="1" source="5L-th6wMLYT3b9Qm78VZ-18" target="5L-th6wMLYT3b9Qm78VZ-14">
          <mxGeometry width="160" relative="1" as="geometry">
            <mxPoint x="230" y="362" as="sourcePoint" />
            <mxPoint x="469" y="350" as="targetPoint" />
          </mxGeometry>
        </mxCell>
        <mxCell id="5L-th6wMLYT3b9Qm78VZ-24" value="implements/实现" style="edgeLabel;html=1;align=center;verticalAlign=middle;resizable=0;points=[];" vertex="1" connectable="0" parent="5L-th6wMLYT3b9Qm78VZ-23">
          <mxGeometry x="-0.1842" relative="1" as="geometry">
            <mxPoint x="-10" as="offset" />
          </mxGeometry>
        </mxCell>
        <mxCell id="5L-th6wMLYT3b9Qm78VZ-25" value="" style="endArrow=block;dashed=1;endFill=0;endSize=12;html=1;rounded=0;edgeStyle=orthogonalEdgeStyle;" edge="1" parent="1" source="5L-th6wMLYT3b9Qm78VZ-18" target="5L-th6wMLYT3b9Qm78VZ-15">
          <mxGeometry width="160" relative="1" as="geometry">
            <mxPoint x="650" y="362" as="sourcePoint" />
            <mxPoint x="490" y="390" as="targetPoint" />
            <Array as="points">
              <mxPoint x="720" y="455" />
            </Array>
          </mxGeometry>
        </mxCell>
        <mxCell id="5L-th6wMLYT3b9Qm78VZ-26" value="implements/实现" style="edgeLabel;html=1;align=center;verticalAlign=middle;resizable=0;points=[];" vertex="1" connectable="0" parent="5L-th6wMLYT3b9Qm78VZ-25">
          <mxGeometry x="-0.1842" relative="1" as="geometry">
            <mxPoint x="-88" as="offset" />
          </mxGeometry>
        </mxCell>
        <mxCell id="5L-th6wMLYT3b9Qm78VZ-31" value="Message" style="swimlane;fontStyle=1;align=center;verticalAlign=top;childLayout=stackLayout;horizontal=1;startSize=26;horizontalStack=0;resizeParent=1;resizeParentMax=0;resizeLast=0;collapsible=1;marginBottom=0;whiteSpace=wrap;html=1;" vertex="1" parent="1">
          <mxGeometry x="340" y="194" width="190" height="60" as="geometry" />
        </mxCell>
        <mxCell id="5L-th6wMLYT3b9Qm78VZ-33" value="" style="line;strokeWidth=1;fillColor=none;align=left;verticalAlign=middle;spacingTop=-1;spacingLeft=3;spacingRight=3;rotatable=0;labelPosition=right;points=[];portConstraint=eastwest;strokeColor=inherit;" vertex="1" parent="5L-th6wMLYT3b9Qm78VZ-31">
          <mxGeometry y="26" width="190" height="8" as="geometry" />
        </mxCell>
        <mxCell id="5L-th6wMLYT3b9Qm78VZ-34" value="+ showHero(&lt;font color=&quot;#ff5e00&quot;&gt;Hero hero&lt;/font&gt;): void" style="text;strokeColor=none;fillColor=none;align=left;verticalAlign=top;spacingLeft=4;spacingRight=4;overflow=hidden;rotatable=0;points=[[0,0.5],[1,0.5]];portConstraint=eastwest;whiteSpace=wrap;html=1;" vertex="1" parent="5L-th6wMLYT3b9Qm78VZ-31">
          <mxGeometry y="34" width="190" height="26" as="geometry" />
        </mxCell>
        <mxCell id="5L-th6wMLYT3b9Qm78VZ-36" value="Use/依赖" style="endArrow=open;endSize=12;dashed=1;html=1;rounded=0;" edge="1" parent="1" source="5L-th6wMLYT3b9Qm78VZ-31" target="5L-th6wMLYT3b9Qm78VZ-5">
          <mxGeometry width="160" relative="1" as="geometry">
            <mxPoint x="340" y="240" as="sourcePoint" />
            <mxPoint x="500" y="240" as="targetPoint" />
          </mxGeometry>
        </mxCell>
        <mxCell id="5L-th6wMLYT3b9Qm78VZ-37" value="common skill" style="swimlane;fontStyle=1;align=center;verticalAlign=top;childLayout=stackLayout;horizontal=1;startSize=26;horizontalStack=0;resizeParent=1;resizeParentMax=0;resizeLast=0;collapsible=1;marginBottom=0;whiteSpace=wrap;html=1;" vertex="1" parent="1">
          <mxGeometry x="340" y="20" width="160" height="86" as="geometry" />
        </mxCell>
        <mxCell id="5L-th6wMLYT3b9Qm78VZ-38" value="&lt;font color=&quot;#ff5e00&quot;&gt;+ hero: Hero&lt;/font&gt;" style="text;strokeColor=none;fillColor=none;align=left;verticalAlign=top;spacingLeft=4;spacingRight=4;overflow=hidden;rotatable=0;points=[[0,0.5],[1,0.5]];portConstraint=eastwest;whiteSpace=wrap;html=1;" vertex="1" parent="5L-th6wMLYT3b9Qm78VZ-37">
          <mxGeometry y="26" width="160" height="26" as="geometry" />
        </mxCell>
        <mxCell id="5L-th6wMLYT3b9Qm78VZ-39" value="" style="line;strokeWidth=1;fillColor=none;align=left;verticalAlign=middle;spacingTop=-1;spacingLeft=3;spacingRight=3;rotatable=0;labelPosition=right;points=[];portConstraint=eastwest;strokeColor=inherit;" vertex="1" parent="5L-th6wMLYT3b9Qm78VZ-37">
          <mxGeometry y="52" width="160" height="8" as="geometry" />
        </mxCell>
        <mxCell id="5L-th6wMLYT3b9Qm78VZ-40" value="+ fire(hero): void" style="text;strokeColor=none;fillColor=none;align=left;verticalAlign=top;spacingLeft=4;spacingRight=4;overflow=hidden;rotatable=0;points=[[0,0.5],[1,0.5]];portConstraint=eastwest;whiteSpace=wrap;html=1;" vertex="1" parent="5L-th6wMLYT3b9Qm78VZ-37">
          <mxGeometry y="60" width="160" height="26" as="geometry" />
        </mxCell>
        <mxCell id="5L-th6wMLYT3b9Qm78VZ-43" value="relation" style="endArrow=block;endFill=1;html=1;edgeStyle=orthogonalEdgeStyle;align=left;verticalAlign=top;rounded=0;" edge="1" parent="1" source="5L-th6wMLYT3b9Qm78VZ-37">
          <mxGeometry x="0.0191" y="-3" relative="1" as="geometry">
            <mxPoint x="280" y="63" as="sourcePoint" />
            <mxPoint x="150" y="90" as="targetPoint" />
            <Array as="points">
              <mxPoint x="150" y="63" />
            </Array>
            <mxPoint as="offset" />
          </mxGeometry>
        </mxCell>
        <mxCell id="5L-th6wMLYT3b9Qm78VZ-44" value="1" style="edgeLabel;resizable=0;html=1;align=left;verticalAlign=bottom;" connectable="0" vertex="1" parent="5L-th6wMLYT3b9Qm78VZ-43">
          <mxGeometry x="-1" relative="1" as="geometry">
            <mxPoint x="-100" as="offset" />
          </mxGeometry>
        </mxCell>
      </root>
    </mxGraphModel>
  </diagram>
</mxfile>
